<svg xmlns="http://www.w3.org/2000/svg" viewBox="0 0 900 1200" role="img" aria-label="Luxury bracelet with elegant feminine editorial styling">
  <defs>
    <linearGradient id="bg" x1="0" y1="0" x2="1" y2="1">
      <stop offset="0%" stop-color="#fff7fa"/>
      <stop offset="52%" stop-color="#f4e6eb"/>
      <stop offset="100%" stop-color="#f5efe6"/>
    </linearGradient>
    <linearGradient id="gold" x1="0" y1="0" x2="1" y2="1">
      <stop offset="0%" stop-color="#f3dfaf"/>
      <stop offset="100%" stop-color="#c8a44a"/>
    </linearGradient>
    <filter id="shadow" x="-20%" y="-20%" width="140%" height="140%">
      <feDropShadow dx="0" dy="18" stdDeviation="22" flood-color="#130c10" flood-opacity=".18"/>
    </filter>
  </defs>
  <rect width="900" height="1200" fill="url(#bg)"/>
  <rect x="74" y="72" width="752" height="1056" rx="34" fill="#fef9f3" filter="url(#shadow)"/>
  <rect x="104" y="102" width="692" height="996" rx="26" fill="none" stroke="#c8a44a" stroke-opacity=".54"/>
  <circle cx="688" cy="180" r="124" fill="#d8b56d" opacity=".14"/>
  <circle cx="208" cy="208" r="100" fill="#f0dce4" opacity=".5"/>
  <ellipse cx="450" cy="1014" rx="210" ry="44" fill="#24161d" opacity=".12"/>
  <g transform="translate(138 126)">
    <g filter="url(#shadow)">
      <circle cx="508" cy="330" r="126" fill="url(#gold)"/>
      <circle cx="508" cy="330" r="88" fill="#fff8f2"/>
      <circle cx="508" cy="330" r="54" fill="#f6dbe2"/>
      <circle cx="438" cy="254" r="20" fill="#fff8f2"/>
      <circle cx="578" cy="406" r="20" fill="#fff8f2"/>
      <circle cx="584" cy="258" r="20" fill="#fff8f2"/>
      <circle cx="434" cy="410" r="20" fill="#fff8f2"/>
    </g>
    <g transform="translate(0 40)" filter="url(#shadow)">
      <path d="M156 74c28-24 62-36 104-36c36 0 68 12 96 36l-12 24H170z" fill="#171419"/>
      <rect x="216" y="108" width="80" height="98" rx="40" fill="#915f43"/>
      <path d="M198 202h116l14 82H184z" fill="#f6dce3"/>
      <path d="M154 284c26-26 60-40 102-40c40 0 74 14 102 40l42 106l-56 20l-26-58v240H194V352l-26 58l-56-20z" fill="#f4d8e0"/>
      <path d="M194 592h124l58 202H150z" fill="#6f1730"/>
      <path d="M206 794h78l10 46H194z" fill="#181419"/>
      <path d="M280 794h80l16 46H280z" fill="#181419"/>
      <path d="M358 336c34 10 56 38 66 82l-42 18c-8-28-22-44-42-50z" fill="#915f43"/>
      <circle cx="408" cy="466" r="34" fill="url(#gold)"/>
      <circle cx="408" cy="466" r="12" fill="#fff8f2"/>
    </g>
  </g>
</svg>
