<svg xmlns="http://www.w3.org/2000/svg" viewBox="0 0 900 1200" role="img" aria-label="Powder rose tailored suit in a luxury campaign">
  <defs>
    <linearGradient id="bg" x1="0" y1="0" x2="1" y2="1">
      <stop offset="0%" stop-color="#fff9fb"/>
      <stop offset="50%" stop-color="#f4e3e8"/>
      <stop offset="100%" stop-color="#f5efe6"/>
    </linearGradient>
    <linearGradient id="suit" x1="0" y1="0" x2="0" y2="1">
      <stop offset="0%" stop-color="#e2a8bb"/>
      <stop offset="100%" stop-color="#c27b97"/>
    </linearGradient>
    <filter id="shadow" x="-20%" y="-20%" width="140%" height="140%">
      <feDropShadow dx="0" dy="18" stdDeviation="22" flood-color="#1e0c13" flood-opacity=".18"/>
    </filter>
  </defs>
  <rect width="900" height="1200" fill="url(#bg)"/>
  <rect x="74" y="72" width="752" height="1054" rx="34" fill="#fff8f3" filter="url(#shadow)"/>
  <rect x="104" y="104" width="692" height="992" rx="26" fill="none" stroke="#d8b56d" stroke-opacity=".5"/>
  <circle cx="684" cy="200" r="116" fill="#d8b56d" opacity=".16"/>
  <circle cx="214" cy="182" r="94" fill="#f0d6df" opacity=".54"/>
  <ellipse cx="450" cy="1016" rx="204" ry="44" fill="#22161b" opacity=".12"/>
  <g transform="translate(214 126)" filter="url(#shadow)">
    <path d="M174 80c28-26 68-40 118-40c42 0 80 14 112 40l-18 28H192z" fill="#161117"/>
    <rect x="240" y="118" width="90" height="108" rx="42" fill="#8f6042"/>
    <path d="M224 224h124l14 88H210z" fill="#fffaf2"/>
    <path d="M178 312c32-30 70-46 114-46c44 0 82 16 114 46l52 120l-58 20l-34-74v220H218V378l-34 74l-58-20z" fill="url(#suit)"/>
    <path d="M224 312l66 90l66-90l26 30l-68 96h-48l-68-96z" fill="#fff7f0"/>
    <rect x="282" y="226" width="18" height="104" fill="#d8b56d"/>
    <path d="M232 598h128l-10 292H244z" fill="#fff7f1"/>
    <path d="M244 890h82l12 50H234z" fill="#181419"/>
    <path d="M314 890h80l18 50H312z" fill="#181419"/>
    <path d="M402 360c34 12 58 38 70 76l-48 22c-8-22-24-38-44-44z" fill="#8f6042"/>
    <circle cx="450" cy="488" r="40" fill="#d8b56d"/>
    <circle cx="450" cy="488" r="16" fill="#fff7f0"/>
  </g>
</svg>
