<svg xmlns="http://www.w3.org/2000/svg" viewBox="0 0 900 1200" role="img" aria-label="Golden watch with a luxury sapeur editorial composition">
  <defs>
    <linearGradient id="bg" x1="0" y1="0" x2="1" y2="1">
      <stop offset="0%" stop-color="#f2efe8"/>
      <stop offset="50%" stop-color="#fff8f2"/>
      <stop offset="100%" stop-color="#eadfe8"/>
    </linearGradient>
    <linearGradient id="watch" x1="0" y1="0" x2="1" y2="1">
      <stop offset="0%" stop-color="#efd9a5"/>
      <stop offset="100%" stop-color="#c8a44a"/>
    </linearGradient>
    <filter id="shadow" x="-20%" y="-20%" width="140%" height="140%">
      <feDropShadow dx="0" dy="18" stdDeviation="22" flood-color="#130c10" flood-opacity=".18"/>
    </filter>
  </defs>
  <rect width="900" height="1200" fill="url(#bg)"/>
  <rect x="74" y="72" width="752" height="1056" rx="34" fill="#fef9f3" filter="url(#shadow)"/>
  <rect x="104" y="102" width="692" height="996" rx="26" fill="none" stroke="#c8a44a" stroke-opacity=".54"/>
  <circle cx="684" cy="180" r="124" fill="#21448e" opacity=".1"/>
  <circle cx="212" cy="200" r="100" fill="#f0dbe3" opacity=".4"/>
  <ellipse cx="450" cy="1012" rx="216" ry="44" fill="#24161d" opacity=".12"/>
  <g transform="translate(118 128)">
    <g filter="url(#shadow)">
      <rect x="430" y="170" width="58" height="352" rx="24" fill="#cfb06e"/>
      <rect x="430" y="552" width="58" height="266" rx="24" fill="#cfb06e"/>
      <circle cx="459" cy="536" r="148" fill="url(#watch)"/>
      <circle cx="459" cy="536" r="108" fill="#fff8f2"/>
      <circle cx="459" cy="536" r="14" fill="#c8a44a"/>
      <path d="M459 536l42-52" stroke="#6f1730" stroke-width="10" stroke-linecap="round"/>
      <path d="M459 536l-64 10" stroke="#21448e" stroke-width="10" stroke-linecap="round"/>
      <circle cx="459" cy="424" r="8" fill="#6f1730"/>
      <circle cx="539" cy="536" r="8" fill="#6f1730"/>
      <circle cx="459" cy="648" r="8" fill="#6f1730"/>
      <circle cx="347" cy="536" r="8" fill="#6f1730"/>
    </g>
    <g transform="translate(0 56)" filter="url(#shadow)">
      <path d="M138 72c28-26 64-40 108-40c42 0 78 14 110 40l-16 26H154z" fill="#111015"/>
      <rect x="204" y="110" width="86" height="102" rx="40" fill="#8a5f48"/>
      <path d="M188 208h116l14 84H174z" fill="#fff8f1"/>
      <path d="M146 292c28-28 60-42 100-42s72 14 100 42l46 110l-56 22l-28-64v252H184V360l-28 64l-56-22z" fill="#21448e"/>
      <path d="M188 612h118l-8 182H198z" fill="#fff8f1"/>
      <path d="M202 794h72l10 46H194z" fill="#181419"/>
      <path d="M270 794h72l16 46H270z" fill="#181419"/>
      <path d="M346 330c34 10 58 38 72 84l-40 18c-8-30-24-48-46-54z" fill="#8a5f48"/>
      <circle cx="404" cy="466" r="36" fill="url(#watch)"/>
      <circle cx="404" cy="466" r="14" fill="#fff8f1"/>
    </g>
  </g>
</svg>
