<svg xmlns="http://www.w3.org/2000/svg" viewBox="0 0 900 1200" role="img" aria-label="HPROMODE editorial fallback visual">
  <defs>
    <linearGradient id="bg" x1="0" y1="0" x2="1" y2="1">
      <stop offset="0%" stop-color="#f7edf1"/>
      <stop offset="50%" stop-color="#fff8f2"/>
      <stop offset="100%" stop-color="#e8eef8"/>
    </linearGradient>
    <filter id="shadow" x="-20%" y="-20%" width="140%" height="140%">
      <feDropShadow dx="0" dy="18" stdDeviation="22" flood-color="#130c10" flood-opacity=".18"/>
    </filter>
  </defs>
  <rect width="900" height="1200" fill="url(#bg)"/>
  <rect x="78" y="72" width="744" height="1056" rx="34" fill="#fef9f3" filter="url(#shadow)"/>
  <rect x="108" y="102" width="684" height="996" rx="26" fill="none" stroke="#c8a44a" stroke-opacity=".56"/>
  <circle cx="692" cy="186" r="124" fill="#21448e" opacity=".12"/>
  <circle cx="210" cy="206" r="98" fill="#f0dce4" opacity=".48"/>
  <ellipse cx="450" cy="1016" rx="208" ry="44" fill="#24161d" opacity=".12"/>
  <g transform="translate(180 126)" filter="url(#shadow)">
    <path d="M176 82c28-24 66-36 114-36c42 0 78 12 110 36l-16 28H194z" fill="#111015"/>
    <rect x="242" y="118" width="88" height="104" rx="42" fill="#8a5f48"/>
    <path d="M224 218h124l14 86H210z" fill="#fff8f1"/>
    <path d="M176 304c28-28 66-42 110-42c44 0 82 14 110 42l52 118l-58 20l-34-72v228H216V370l-34 72l-58-20z" fill="#6f1730"/>
    <path d="M230 304l58 82l60-82l28 32l-66 94h-48l-62-94z" fill="#21448e"/>
    <path d="M224 598h130l-10 196H236z" fill="#fff8f1"/>
    <path d="M240 794h76l10 46H230z" fill="#181419"/>
    <path d="M312 794h76l16 46H312z" fill="#181419"/>
    <rect x="282" y="220" width="18" height="106" fill="#c8a44a"/>
  </g>
</svg>
