<svg xmlns="http://www.w3.org/2000/svg" viewBox="0 0 900 1200" role="img" aria-label="Bordeaux gown on a luxury Congolese sapeuse editorial scene">
  <defs>
    <linearGradient id="bg" x1="0" y1="0" x2="1" y2="1">
      <stop offset="0%" stop-color="#f8ecf1"/>
      <stop offset="55%" stop-color="#fff8f2"/>
      <stop offset="100%" stop-color="#edd9cf"/>
    </linearGradient>
    <linearGradient id="dress" x1="0" y1="0" x2="0" y2="1">
      <stop offset="0%" stop-color="#8d2041"/>
      <stop offset="100%" stop-color="#5d1328"/>
    </linearGradient>
    <filter id="shadow" x="-20%" y="-20%" width="140%" height="140%">
      <feDropShadow dx="0" dy="18" stdDeviation="22" flood-color="#1e0c13" flood-opacity=".22"/>
    </filter>
  </defs>
  <rect width="900" height="1200" fill="url(#bg)"/>
  <rect x="78" y="72" width="744" height="1054" rx="34" fill="#f6eee7" filter="url(#shadow)"/>
  <rect x="108" y="102" width="684" height="994" rx="24" fill="none" stroke="#d3b16c" stroke-opacity=".55"/>
  <circle cx="692" cy="202" r="116" fill="#d7b56a" opacity=".18"/>
  <circle cx="220" cy="188" r="100" fill="#f2d9e0" opacity=".5"/>
  <ellipse cx="450" cy="1010" rx="204" ry="44" fill="#2a1620" opacity=".13"/>
  <g transform="translate(214 122)" filter="url(#shadow)">
    <path d="M180 74c28-24 64-36 108-36c38 0 72 12 100 36l-16 32H196z" fill="#111015"/>
    <rect x="244" y="114" width="86" height="104" rx="42" fill="#8b5b41"/>
    <path d="M228 214h112l14 88H214z" fill="#f2d8dd"/>
    <path d="M170 304c26-32 66-50 116-50c50 0 90 18 116 50l46 112l-62 22l-34-74v170l-14 176H212l-14-176V364l-34 74l-62-22z" fill="url(#dress)"/>
    <path d="M180 710h212l80 226H108z" fill="#a2244c"/>
    <path d="M224 936h84l14 54h-104z" fill="#18141a"/>
    <path d="M334 936h86l22 54H334z" fill="#18141a"/>
    <path d="M162 396c-10 88-28 152-54 192l56 30c18-28 30-58 40-90" fill="#8b5b41"/>
    <rect x="84" y="594" width="120" height="86" rx="18" fill="#6f1730"/>
    <rect x="112" y="572" width="62" height="22" rx="11" fill="#d7b56a"/>
    <path d="M352 302l34 58h-188l34-58z" fill="#f7eff2"/>
    <circle cx="288" cy="156" r="6" fill="#d7b56a"/>
    <circle cx="326" cy="156" r="6" fill="#d7b56a"/>
  </g>
</svg>
