<svg xmlns="http://www.w3.org/2000/svg" viewBox="0 0 900 1200" role="img" aria-label="Powder pink gown in a premium fashion campaign">
  <defs>
    <linearGradient id="bg" x1="0" y1="0" x2="1" y2="1">
      <stop offset="0%" stop-color="#fff8fb"/>
      <stop offset="55%" stop-color="#f8edf2"/>
      <stop offset="100%" stop-color="#eef1fa"/>
    </linearGradient>
    <linearGradient id="dress" x1="0" y1="0" x2="0" y2="1">
      <stop offset="0%" stop-color="#f1c9d6"/>
      <stop offset="100%" stop-color="#d892a7"/>
    </linearGradient>
    <filter id="shadow" x="-20%" y="-20%" width="140%" height="140%">
      <feDropShadow dx="0" dy="18" stdDeviation="22" flood-color="#1e0c13" flood-opacity=".18"/>
    </filter>
  </defs>
  <rect width="900" height="1200" fill="url(#bg)"/>
  <rect x="74" y="74" width="752" height="1052" rx="34" fill="#fff7f3" filter="url(#shadow)"/>
  <rect x="106" y="106" width="688" height="988" rx="26" fill="none" stroke="#d2aec3" stroke-opacity=".7"/>
  <circle cx="684" cy="192" r="130" fill="#d7b56a" opacity=".12"/>
  <circle cx="224" cy="210" r="112" fill="#f0dbe4" opacity=".52"/>
  <path d="M120 864c194-52 424-54 660 0v262H120z" fill="#f1e4db"/>
  <ellipse cx="450" cy="1008" rx="220" ry="46" fill="#271720" opacity=".12"/>
  <g transform="translate(180 116)" filter="url(#shadow)">
    <path d="M212 74c28-22 64-34 108-34c38 0 72 12 98 34l-12 30H224z" fill="#20284d"/>
    <rect x="278" y="112" width="82" height="102" rx="40" fill="#915f43"/>
    <path d="M262 210h114l16 84H246z" fill="#f6dbe2"/>
    <path d="M224 292c26-28 58-42 96-42c38 0 70 14 96 42l70 198l-60 22l-42-112l14 204l-30 302H256l-28-302l12-204l-42 112l-60-22z" fill="url(#dress)"/>
    <path d="M240 604h160l88 282H154z" fill="#f4d8e1"/>
    <path d="M256 886h76l10 52H244z" fill="#171419"/>
    <path d="M344 886h84l24 52H352z" fill="#171419"/>
    <path d="M166 360c0 82-18 144-54 188l58 30c24-34 42-82 50-130" fill="#915f43"/>
    <circle cx="108" cy="640" r="56" fill="#d7b56a"/>
    <circle cx="108" cy="640" r="22" fill="#fff7f1"/>
    <circle cx="320" cy="152" r="6" fill="#d7b56a"/>
    <circle cx="346" cy="152" r="6" fill="#d7b56a"/>
  </g>
</svg>
